<svg width="119" height="52" viewBox="0 0 119 52" fill="none" xmlns="http://www.w3.org/2000/svg">
<path d="M18.1328 33.7109C19.3698 35.1953 21.3099 35.9375 23.9531 35.9375C26.4271 35.9375 28.9922 35.5208 31.6484 34.6875C32.5208 34.4141 33.1654 34.2773 33.582 34.2773C34.3372 34.2773 34.7148 34.4922 34.7148 34.9219C34.7148 35.5469 34.2201 36.2174 33.2305 36.9336C32.2409 37.6367 30.9909 38.2682 29.4805 38.8281C27.9701 39.388 26.2578 39.8503 24.3438 40.2148C22.4427 40.5924 20.6328 40.7812 18.9141 40.7812C15.8672 40.7812 13.1849 40.306 10.8672 39.3555C8.54948 38.4049 6.7526 37.0508 5.47656 35.293C4.20052 33.5221 3.5625 31.5951 3.5625 29.5117C3.5625 27.4154 3.91406 25.4818 4.61719 23.7109C5.32031 21.9271 6.27083 20.319 7.46875 18.8867C8.67969 17.4544 10.0859 16.1263 11.6875 14.9023C13.3021 13.6784 15.0013 12.6562 16.7852 11.8359C20.6003 10.0911 24.2591 9.21875 27.7617 9.21875C31.2643 9.21875 33.9857 9.94141 35.9258 11.3867C37.8659 12.819 38.8359 14.5768 38.8359 16.6602C38.8359 18.9258 38.1654 20.9115 36.8242 22.6172C36.1862 23.4505 35.3333 24.1146 34.2656 24.6094C33.2109 25.1042 32.0195 25.3516 30.6914 25.3516C29.806 25.3516 29.0508 25.2279 28.4258 24.9805C27.2409 24.5117 26.6484 23.8411 26.6484 22.9688C26.6484 22.6693 26.987 21.8229 27.6641 20.4297C28.3542 19.0365 29.0443 17.6042 29.7344 16.1328C30.4245 14.6484 30.7695 13.6328 30.7695 13.0859C30.7695 12.526 30.5352 12.1419 30.0664 11.9336C29.5977 11.7253 28.9271 11.6211 28.0547 11.6211C27.1953 11.6211 26.2188 11.9531 25.125 12.6172C24.0312 13.2682 22.9766 14.1667 21.9609 15.3125C20.9453 16.4453 20.0143 17.7083 19.168 19.1016C18.3216 20.4948 17.6445 22.0052 17.1367 23.6328C16.6289 25.2474 16.375 26.6992 16.375 27.9883C16.375 29.2773 16.5182 30.3776 16.8047 31.2891C17.1042 32.2005 17.5469 33.0078 18.1328 33.7109Z" fill="#FFFCF9"/>
<path d="M108.18 13.1836C108.18 12.3372 107.079 11.9141 104.879 11.9141C103.941 11.9141 102.887 12.2135 101.715 12.8125C100.556 13.3984 99.4753 14.2188 98.4727 15.2734C97.4701 16.3281 96.5716 17.5195 95.7773 18.8477C94.0456 21.7122 93.1797 24.6549 93.1797 27.6758C93.1797 30.6836 93.7786 33.0273 94.9766 34.707C96.1875 36.3867 98.0169 37.2266 100.465 37.2266C100.673 37.2266 100.829 37.2201 100.934 37.207C101.454 35.8789 101.923 34.4987 102.34 33.0664C102.77 31.6341 102.984 30.7617 102.984 30.4492C102.984 30.1237 102.802 29.8568 102.438 29.6484C102.073 29.4401 101.669 29.2969 101.227 29.2188C100.055 29.0104 99.4688 28.6263 99.4688 28.0664C99.4688 27.3372 100.406 26.7773 102.281 26.3867C104.156 25.9961 106.389 25.8008 108.98 25.8008C111.585 25.8008 113.303 25.9245 114.137 26.1719C114.97 26.4062 115.387 26.7969 115.387 27.3438C115.387 27.7214 115.159 28.3594 114.703 29.2578C114.247 30.1562 113.499 32.3307 112.457 35.7812C111.415 39.2318 110.66 41.3151 110.191 42.0312C109.423 43.2161 108.251 44.1016 106.676 44.6875C105.113 45.2865 103.277 45.5859 101.168 45.5859C97.3008 45.5859 95.3672 45.1758 95.3672 44.3555C95.3672 43.8086 95.8555 43.2552 96.832 42.6953C97.9518 42.0443 98.7917 41.3216 99.3516 40.5273C99.5859 40.1758 99.8138 39.7721 100.035 39.3164C98.2513 39.7721 96.181 40 93.8242 40C91.4674 40 89.4036 39.7461 87.6328 39.2383C85.875 38.7174 84.4753 37.9753 83.4336 37.0117C81.4154 35.1497 80.4062 32.6237 80.4062 29.4336C80.4062 27.5586 80.7773 25.7227 81.5195 23.9258C82.2617 22.1289 83.2643 20.5013 84.5273 19.043C85.7904 17.5846 87.2617 16.237 88.9414 15C90.6211 13.763 92.3919 12.7214 94.2539 11.875C98.1992 10.1042 102.099 9.21875 105.953 9.21875C109.807 9.21875 112.678 9.79818 114.566 10.957C116.467 12.1159 117.418 13.737 117.418 15.8203C117.418 17.0312 116.878 18.1641 115.797 19.2188C114.573 20.4167 112.652 21.0156 110.035 21.0156C109.15 21.0156 108.395 20.8919 107.77 20.6445C106.585 20.1758 105.992 19.5052 105.992 18.6328C105.992 18.4375 106.357 17.5977 107.086 16.1133C107.815 14.6289 108.18 13.6523 108.18 13.1836Z" fill="#FFFCF9"/>
<path d="M68.0003 19.7465C68.0832 19.579 68.0741 19.3717 67.9765 19.2117L65.2857 14.7995C65.1802 14.6257 65.1802 14.3974 65.2857 14.2225L67.9765 9.81022C68.0741 9.65013 68.0832 9.44422 68.0003 9.27547C67.9163 9.10673 67.7552 9 67.5804 9H55.0299V20.0231H67.5803C67.7552 20.0232 67.9163 19.9152 68.0003 19.7465Z" fill="#FF4700"/>
<path d="M76.4857 43.7481L75.8535 42.2281L69.277 26.3908H60.7849H60.1062H54.8325V28.8959H58.7568H62.1342H63.6368L56.0558 39.29L45.681 34.5093L48.012 28.8959H49.8528V26.3908H46.5344L39.3269 43.7481C39.3041 43.8039 39.3087 43.8672 39.3382 43.9181C39.3689 43.969 39.4199 44 39.4755 44H76.337C76.3926 44 76.4437 43.969 76.4743 43.9181C76.5038 43.8672 76.5083 43.8039 76.4857 43.7481ZM65.103 28.896H67.8006L70.766 36.0367L62.8389 31.9992L65.103 28.896ZM42.7814 41.4937L45.2077 35.6508L57.8864 41.4937H42.7814ZM60.8382 41.4937L57.1533 39.795L62.1035 33.0079L71.4934 37.7886L73.0311 41.4936L60.8382 41.4937Z" fill="#FF4700"/>
<path d="M53.6863 9.00012H50.9989V32.5117H53.6863V9.00012Z" fill="#FF4700"/>
</svg>
