<?xml version="1.0" encoding="utf-8"?>
<!-- Generator: Adobe Illustrator 27.5.0, SVG Export Plug-In . SVG Version: 6.00 Build 0)  -->
<svg version="1.1" xmlns="http://www.w3.org/2000/svg" xmlns:xlink="http://www.w3.org/1999/xlink" x="0px" y="0px"
	 viewBox="0 0 800 800" style="enable-background:new 0 0 800 800;" xml:space="preserve">
<g id="object">
	<g>
		<path style="fill:#2e294e;" d="M490.578,546.537c0,9.563-38.498,17.313-85.987,17.313c-47.488,0-85.985-7.75-85.985-17.313
			c0-9.562,38.497-17.313,85.985-17.313C452.08,529.225,490.578,536.976,490.578,546.537z"/>
		<g>
			<path style="fill:#d73d3a;" d="M588.666,276.796c0,101.661-184.073,267.817-184.073,267.817S220.519,378.457,220.519,276.796
				S302.932,92.722,404.593,92.722C506.254,92.722,588.666,175.135,588.666,276.796z"/>
			<g>
				
					<ellipse transform="matrix(0.7071 -0.7071 0.7071 0.7071 -76.2397 366.7552)" style="fill:#FFFFFF;" cx="404.593" cy="275.407" rx="139.804" ry="139.804"/>
				<path style="fill:#d73d3a;" d="M490.578,275.407c0,47.489-38.495,85.985-85.985,85.985c-47.488,0-85.987-38.497-85.987-85.985
					c0-47.488,38.5-85.985,85.987-85.985C452.083,189.422,490.578,227.919,490.578,275.407z"/>
				<path style="fill:#FFFFFF;" d="M440.184,275.636c0,19.657-15.936,35.592-35.591,35.592c-19.657,0-35.592-15.935-35.592-35.592
					c0-19.656,15.934-35.591,35.592-35.591C424.248,240.045,440.184,255.98,440.184,275.636z"/>
			</g>
		</g>
	</g>
</g>
</svg>
